<?xml version="1.0" encoding="UTF-8"?>
<svg xmlns="http://www.w3.org/2000/svg" xmlns:xlink="http://www.w3.org/1999/xlink" width="854" height="480" viewBox="0 0 854 480">
<defs>
<g>
<g id="glyph-0-0">
<path d="M 1.921875 -2.234375 C 1.722656 -2.234375 1.570312 -2.160156 1.46875 -2.015625 C 1.375 -1.878906 1.328125 -1.679688 1.328125 -1.421875 C 1.328125 -1.160156 1.375 -0.960938 1.46875 -0.828125 C 1.570312 -0.691406 1.722656 -0.625 1.921875 -0.625 C 2.109375 -0.625 2.253906 -0.691406 2.359375 -0.828125 C 2.460938 -0.960938 2.515625 -1.160156 2.515625 -1.421875 C 2.515625 -1.679688 2.460938 -1.878906 2.359375 -2.015625 C 2.253906 -2.160156 2.109375 -2.234375 1.921875 -2.234375 Z M 3.078125 -4.34375 L 3.078125 -3.546875 C 2.921875 -3.640625 2.769531 -3.707031 2.625 -3.75 C 2.476562 -3.789062 2.335938 -3.8125 2.203125 -3.8125 C 1.890625 -3.8125 1.648438 -3.703125 1.484375 -3.484375 C 1.316406 -3.273438 1.226562 -2.960938 1.21875 -2.546875 C 1.3125 -2.679688 1.429688 -2.78125 1.578125 -2.84375 C 1.722656 -2.90625 1.894531 -2.9375 2.09375 -2.9375 C 2.488281 -2.9375 2.796875 -2.804688 3.015625 -2.546875 C 3.234375 -2.296875 3.34375 -1.941406 3.34375 -1.484375 C 3.34375 -0.984375 3.21875 -0.59375 2.96875 -0.3125 C 2.726562 -0.0390625 2.382812 0.09375 1.9375 0.09375 C 1.394531 0.09375 1 -0.0859375 0.75 -0.453125 C 0.507812 -0.816406 0.390625 -1.40625 0.390625 -2.21875 C 0.390625 -2.988281 0.539062 -3.566406 0.84375 -3.953125 C 1.144531 -4.335938 1.59375 -4.53125 2.1875 -4.53125 C 2.332031 -4.53125 2.476562 -4.515625 2.625 -4.484375 C 2.769531 -4.453125 2.921875 -4.40625 3.078125 -4.34375 Z "/>
</g>
</g>
</defs>
<g fill="rgb(100%, 100%, 100%)" fill-opacity="1">
<use xlink:href="#glyph-0-0" x="30" y="25.671875"/>
</g>
</svg>
