<?xml version="1.0" encoding="UTF-8"?>
<svg xmlns="http://www.w3.org/2000/svg" xmlns:xlink="http://www.w3.org/1999/xlink" width="854" height="480" viewBox="0 0 854 480">
<defs>
<g>
<g id="glyph-0-0">
<path d="M 1.765625 0 L 1.078125 0 L 1.078125 -2.84375 L 0.203125 -2.84375 L 0.203125 -3.4375 L 2.640625 -3.4375 L 2.640625 -2.84375 L 1.765625 -2.84375 Z "/>
</g>
<g id="glyph-0-1">
<path d="M 0.3125 -3.4375 L 1 -3.4375 L 1 -2.125 L 1.84375 -2.125 L 1.84375 -3.4375 L 2.53125 -3.4375 L 2.53125 0 L 1.84375 0 L 1.84375 -1.53125 L 1 -1.53125 L 1 0 L 0.3125 0 Z "/>
</g>
<g id="glyph-0-2">
<path d="M 2.53125 0 L 0.390625 0 L 0.390625 -3.4375 L 2.53125 -3.4375 L 2.53125 -2.84375 L 1.0625 -2.84375 L 1.0625 -2.09375 L 2.390625 -2.09375 L 2.390625 -1.5 L 1.0625 -1.5 L 1.0625 -0.59375 L 2.53125 -0.59375 Z "/>
</g>
<g id="glyph-0-3">
</g>
<g id="glyph-0-4">
<path d="M 1.046875 -2.875 L 1.046875 -1.859375 L 1.328125 -1.859375 C 1.554688 -1.859375 1.710938 -1.894531 1.796875 -1.96875 C 1.890625 -2.039062 1.9375 -2.171875 1.9375 -2.359375 C 1.9375 -2.546875 1.890625 -2.675781 1.796875 -2.75 C 1.710938 -2.832031 1.554688 -2.875 1.328125 -2.875 Z M 0.375 -3.4375 L 1.3125 -3.4375 C 1.78125 -3.4375 2.117188 -3.351562 2.328125 -3.1875 C 2.535156 -3.019531 2.640625 -2.742188 2.640625 -2.359375 C 2.640625 -1.984375 2.535156 -1.707031 2.328125 -1.53125 C 2.117188 -1.363281 1.78125 -1.28125 1.3125 -1.28125 L 1.046875 -1.28125 L 1.046875 0 L 0.375 0 Z "/>
</g>
<g id="glyph-0-5">
<path d="M 1.421875 -2.8125 L 1.09375 -1.40625 L 1.734375 -1.40625 Z M 1 -3.4375 L 1.84375 -3.4375 L 2.765625 0 L 2.078125 0 L 1.875 -0.84375 L 0.96875 -0.84375 L 0.75 0 L 0.078125 0 Z "/>
</g>
<g id="glyph-0-6">
<path d="M 1.859375 -1.625 C 1.921875 -1.613281 1.976562 -1.582031 2.03125 -1.53125 C 2.082031 -1.476562 2.144531 -1.378906 2.21875 -1.234375 L 2.84375 0 L 2.09375 0 L 1.671875 -0.875 C 1.660156 -0.894531 1.644531 -0.925781 1.625 -0.96875 C 1.507812 -1.226562 1.367188 -1.359375 1.203125 -1.359375 L 0.984375 -1.359375 L 0.984375 0 L 0.3125 0 L 0.3125 -3.4375 L 1.28125 -3.4375 C 1.726562 -3.4375 2.046875 -3.359375 2.234375 -3.203125 C 2.429688 -3.046875 2.53125 -2.789062 2.53125 -2.4375 C 2.53125 -2.195312 2.472656 -2.007812 2.359375 -1.875 C 2.242188 -1.738281 2.078125 -1.65625 1.859375 -1.625 Z M 0.984375 -2.875 L 0.984375 -1.9375 L 1.3125 -1.9375 C 1.488281 -1.9375 1.617188 -1.972656 1.703125 -2.046875 C 1.785156 -2.117188 1.828125 -2.238281 1.828125 -2.40625 C 1.828125 -2.570312 1.785156 -2.691406 1.703125 -2.765625 C 1.628906 -2.835938 1.5 -2.875 1.3125 -2.875 Z "/>
</g>
<g id="glyph-0-7">
<path d="M 1.71875 -3.4375 L 1.71875 -2.15625 L 1.125 -2.15625 L 1.125 -3.4375 Z "/>
</g>
<g id="glyph-0-8">
<path d="M 1.171875 -1.515625 C 0.828125 -1.640625 0.59375 -1.773438 0.46875 -1.921875 C 0.351562 -2.066406 0.296875 -2.257812 0.296875 -2.5 C 0.296875 -2.8125 0.394531 -3.054688 0.59375 -3.234375 C 0.789062 -3.410156 1.066406 -3.5 1.421875 -3.5 C 1.578125 -3.5 1.734375 -3.476562 1.890625 -3.4375 C 2.046875 -3.40625 2.203125 -3.351562 2.359375 -3.28125 L 2.359375 -2.625 C 2.210938 -2.726562 2.0625 -2.804688 1.90625 -2.859375 C 1.757812 -2.910156 1.613281 -2.9375 1.46875 -2.9375 C 1.300781 -2.9375 1.175781 -2.898438 1.09375 -2.828125 C 1.007812 -2.765625 0.96875 -2.675781 0.96875 -2.5625 C 0.96875 -2.46875 1 -2.390625 1.0625 -2.328125 C 1.125 -2.265625 1.253906 -2.191406 1.453125 -2.109375 L 1.75 -2 C 2.03125 -1.90625 2.234375 -1.769531 2.359375 -1.59375 C 2.492188 -1.425781 2.5625 -1.21875 2.5625 -0.96875 C 2.5625 -0.625 2.457031 -0.363281 2.25 -0.1875 C 2.039062 -0.0195312 1.726562 0.0625 1.3125 0.0625 C 1.144531 0.0625 0.972656 0.0390625 0.796875 0 C 0.628906 -0.0390625 0.46875 -0.0976562 0.3125 -0.171875 L 0.3125 -0.875 C 0.488281 -0.75 0.660156 -0.65625 0.828125 -0.59375 C 1.003906 -0.53125 1.175781 -0.5 1.34375 -0.5 C 1.507812 -0.5 1.640625 -0.535156 1.734375 -0.609375 C 1.828125 -0.679688 1.875 -0.785156 1.875 -0.921875 C 1.875 -1.023438 1.84375 -1.113281 1.78125 -1.1875 C 1.71875 -1.269531 1.628906 -1.332031 1.515625 -1.375 Z "/>
</g>
<g id="glyph-0-9">
<path d="M 2.015625 -0.625 L 2.015625 -1.28125 L 1.546875 -1.28125 L 1.546875 -1.84375 L 2.609375 -1.84375 L 2.609375 -0.28125 C 2.472656 -0.164062 2.328125 -0.078125 2.171875 -0.015625 C 2.015625 0.0351562 1.847656 0.0625 1.671875 0.0625 C 1.222656 0.0625 0.875 -0.0859375 0.625 -0.390625 C 0.382812 -0.703125 0.265625 -1.144531 0.265625 -1.71875 C 0.265625 -2.289062 0.382812 -2.726562 0.625 -3.03125 C 0.875 -3.34375 1.234375 -3.5 1.703125 -3.5 C 1.835938 -3.5 1.972656 -3.476562 2.109375 -3.4375 C 2.242188 -3.40625 2.367188 -3.351562 2.484375 -3.28125 L 2.484375 -2.515625 C 2.390625 -2.640625 2.28125 -2.734375 2.15625 -2.796875 C 2.03125 -2.859375 1.894531 -2.890625 1.75 -2.890625 C 1.488281 -2.890625 1.296875 -2.789062 1.171875 -2.59375 C 1.046875 -2.40625 0.984375 -2.113281 0.984375 -1.71875 C 0.984375 -1.332031 1.039062 -1.039062 1.15625 -0.84375 C 1.28125 -0.644531 1.460938 -0.546875 1.703125 -0.546875 C 1.765625 -0.546875 1.820312 -0.550781 1.875 -0.5625 C 1.925781 -0.570312 1.972656 -0.59375 2.015625 -0.625 Z "/>
</g>
<g id="glyph-0-10">
<path d="M 0.25 -1.265625 L 0.25 -3.4375 L 0.921875 -3.4375 L 0.921875 -1.09375 C 0.921875 -0.925781 0.960938 -0.789062 1.046875 -0.6875 C 1.140625 -0.59375 1.265625 -0.546875 1.421875 -0.546875 C 1.578125 -0.546875 1.695312 -0.59375 1.78125 -0.6875 C 1.875 -0.789062 1.921875 -0.925781 1.921875 -1.09375 L 1.921875 -3.4375 L 2.59375 -3.4375 L 2.59375 -1.265625 C 2.59375 -0.796875 2.5 -0.457031 2.3125 -0.25 C 2.125 -0.0390625 1.828125 0.0625 1.421875 0.0625 C 1.003906 0.0625 0.703125 -0.0390625 0.515625 -0.25 C 0.335938 -0.457031 0.25 -0.796875 0.25 -1.265625 Z "/>
</g>
<g id="glyph-0-11">
<path d="M 0.203125 -3.4375 L 1.015625 -3.4375 L 1.421875 -1.9375 L 1.828125 -3.4375 L 2.640625 -3.4375 L 2.640625 0 L 2.0625 0 L 2.0625 -2.75 L 1.6875 -1.25 L 1.15625 -1.25 L 0.78125 -2.75 L 0.78125 0 L 0.203125 0 Z "/>
</g>
<g id="glyph-0-12">
<path d="M 0.28125 -3.4375 L 1 -3.4375 L 1.96875 -0.9375 L 1.96875 -3.4375 L 2.5625 -3.4375 L 2.5625 0 L 1.84375 0 L 0.875 -2.5 L 0.875 0 L 0.28125 0 Z "/>
</g>
<g id="glyph-0-13">
<path d="M 2.484375 -0.09375 C 2.378906 -0.0390625 2.265625 -0.00390625 2.140625 0.015625 C 2.023438 0.046875 1.90625 0.0625 1.78125 0.0625 C 1.3125 0.0625 0.953125 -0.0859375 0.703125 -0.390625 C 0.460938 -0.691406 0.34375 -1.132812 0.34375 -1.71875 C 0.34375 -2.289062 0.460938 -2.726562 0.703125 -3.03125 C 0.953125 -3.34375 1.3125 -3.5 1.78125 -3.5 C 1.90625 -3.5 2.023438 -3.484375 2.140625 -3.453125 C 2.265625 -3.429688 2.378906 -3.394531 2.484375 -3.34375 L 2.484375 -2.578125 C 2.367188 -2.679688 2.253906 -2.757812 2.140625 -2.8125 C 2.035156 -2.863281 1.925781 -2.890625 1.8125 -2.890625 C 1.5625 -2.890625 1.375 -2.789062 1.25 -2.59375 C 1.125 -2.394531 1.0625 -2.101562 1.0625 -1.71875 C 1.0625 -1.332031 1.125 -1.039062 1.25 -0.84375 C 1.375 -0.644531 1.5625 -0.546875 1.8125 -0.546875 C 1.925781 -0.546875 2.035156 -0.566406 2.140625 -0.609375 C 2.253906 -0.660156 2.367188 -0.742188 2.484375 -0.859375 Z "/>
</g>
<g id="glyph-0-14">
<path d="M 0.390625 -2.84375 L 0.390625 -3.4375 L 2.4375 -3.4375 L 2.4375 -2.84375 L 1.765625 -2.84375 L 1.765625 -0.59375 L 2.4375 -0.59375 L 2.4375 0 L 0.390625 0 L 0.390625 -0.59375 L 1.078125 -0.59375 L 1.078125 -2.84375 Z "/>
</g>
</g>
</defs>
<g fill="rgb(13.333333%, 34.117647%, 47.843137%)" fill-opacity="1">
<use xlink:href="#glyph-0-0" x="30" y="24.383789"/>
<use xlink:href="#glyph-0-1" x="33" y="24.383789"/>
<use xlink:href="#glyph-0-2" x="36" y="24.383789"/>
<use xlink:href="#glyph-0-3" x="39" y="24.383789"/>
<use xlink:href="#glyph-0-4" x="42" y="24.383789"/>
<use xlink:href="#glyph-0-5" x="45" y="24.383789"/>
<use xlink:href="#glyph-0-4" x="48" y="24.383789"/>
<use xlink:href="#glyph-0-2" x="51" y="24.383789"/>
<use xlink:href="#glyph-0-6" x="54" y="24.383789"/>
<use xlink:href="#glyph-0-7" x="57" y="24.383789"/>
<use xlink:href="#glyph-0-8" x="60" y="24.383789"/>
<use xlink:href="#glyph-0-3" x="63" y="24.383789"/>
<use xlink:href="#glyph-0-5" x="66" y="24.383789"/>
<use xlink:href="#glyph-0-6" x="69" y="24.383789"/>
<use xlink:href="#glyph-0-9" x="72" y="24.383789"/>
<use xlink:href="#glyph-0-10" x="75" y="24.383789"/>
<use xlink:href="#glyph-0-11" x="78" y="24.383789"/>
<use xlink:href="#glyph-0-2" x="81" y="24.383789"/>
<use xlink:href="#glyph-0-12" x="84" y="24.383789"/>
<use xlink:href="#glyph-0-0" x="87" y="24.383789"/>
<use xlink:href="#glyph-0-3" x="90" y="24.383789"/>
<use xlink:href="#glyph-0-13" x="93" y="24.383789"/>
<use xlink:href="#glyph-0-1" x="96" y="24.383789"/>
<use xlink:href="#glyph-0-5" x="99" y="24.383789"/>
<use xlink:href="#glyph-0-14" x="102" y="24.383789"/>
<use xlink:href="#glyph-0-12" x="105" y="24.383789"/>
</g>
</svg>
