<?xml version="1.0" encoding="UTF-8"?>
<svg xmlns="http://www.w3.org/2000/svg" xmlns:xlink="http://www.w3.org/1999/xlink" width="854" height="480" viewBox="0 0 854 480">
<defs>
<g>
<g id="glyph-0-0">
<path d="M 1.5625 -1.828125 C 1.40625 -1.828125 1.285156 -1.769531 1.203125 -1.65625 C 1.128906 -1.539062 1.09375 -1.378906 1.09375 -1.171875 C 1.09375 -0.953125 1.128906 -0.785156 1.203125 -0.671875 C 1.285156 -0.554688 1.40625 -0.5 1.5625 -0.5 C 1.71875 -0.5 1.835938 -0.554688 1.921875 -0.671875 C 2.015625 -0.785156 2.0625 -0.953125 2.0625 -1.171875 C 2.0625 -1.378906 2.015625 -1.539062 1.921875 -1.65625 C 1.835938 -1.769531 1.71875 -1.828125 1.5625 -1.828125 Z M 2.515625 -3.5625 L 2.515625 -2.90625 C 2.390625 -2.976562 2.265625 -3.03125 2.140625 -3.0625 C 2.023438 -3.101562 1.910156 -3.125 1.796875 -3.125 C 1.535156 -3.125 1.335938 -3.035156 1.203125 -2.859375 C 1.066406 -2.679688 1 -2.425781 1 -2.09375 C 1.070312 -2.195312 1.164062 -2.273438 1.28125 -2.328125 C 1.40625 -2.378906 1.546875 -2.40625 1.703125 -2.40625 C 2.035156 -2.40625 2.289062 -2.300781 2.46875 -2.09375 C 2.644531 -1.882812 2.734375 -1.59375 2.734375 -1.21875 C 2.734375 -0.800781 2.632812 -0.476562 2.4375 -0.25 C 2.238281 -0.03125 1.957031 0.078125 1.59375 0.078125 C 1.144531 0.078125 0.816406 -0.0664062 0.609375 -0.359375 C 0.410156 -0.660156 0.3125 -1.144531 0.3125 -1.8125 C 0.3125 -2.445312 0.4375 -2.921875 0.6875 -3.234375 C 0.9375 -3.546875 1.304688 -3.703125 1.796875 -3.703125 C 1.910156 -3.703125 2.023438 -3.691406 2.140625 -3.671875 C 2.265625 -3.648438 2.390625 -3.613281 2.515625 -3.5625 Z "/>
</g>
</g>
</defs>
<g fill="rgb(12.156863%, 16.078431%, 20%)" fill-opacity="1">
<use xlink:href="#glyph-0-0" x="30" y="24.641602"/>
</g>
</svg>
