<?xml version="1.0" encoding="UTF-8"?>
<svg xmlns="http://www.w3.org/2000/svg" xmlns:xlink="http://www.w3.org/1999/xlink" width="854" height="480" viewBox="0 0 854 480">
<defs>
<g>
<g id="glyph-0-0">
<path d="M 0.203125 -3.640625 L 1.0625 -3.640625 L 1.5 -2.046875 L 1.9375 -3.640625 L 2.796875 -3.640625 L 2.796875 0 L 2.1875 0 L 2.1875 -2.921875 L 1.796875 -1.328125 L 1.21875 -1.328125 L 0.828125 -2.921875 L 0.828125 0 L 0.203125 0 Z "/>
</g>
<g id="glyph-0-1">
<path d="M 1.5 -3.0625 C 1.320312 -3.0625 1.1875 -2.960938 1.09375 -2.765625 C 1.007812 -2.566406 0.96875 -2.25 0.96875 -1.8125 C 0.96875 -1.382812 1.007812 -1.070312 1.09375 -0.875 C 1.1875 -0.675781 1.320312 -0.578125 1.5 -0.578125 C 1.6875 -0.578125 1.820312 -0.675781 1.90625 -0.875 C 1.988281 -1.070312 2.03125 -1.382812 2.03125 -1.8125 C 2.03125 -2.25 1.988281 -2.566406 1.90625 -2.765625 C 1.820312 -2.960938 1.6875 -3.0625 1.5 -3.0625 Z M 0.21875 -1.8125 C 0.21875 -2.4375 0.328125 -2.910156 0.546875 -3.234375 C 0.765625 -3.554688 1.082031 -3.71875 1.5 -3.71875 C 1.925781 -3.71875 2.242188 -3.554688 2.453125 -3.234375 C 2.671875 -2.910156 2.78125 -2.4375 2.78125 -1.8125 C 2.78125 -1.195312 2.671875 -0.726562 2.453125 -0.40625 C 2.242188 -0.0820312 1.925781 0.078125 1.5 0.078125 C 1.082031 0.078125 0.765625 -0.0820312 0.546875 -0.40625 C 0.328125 -0.726562 0.21875 -1.195312 0.21875 -1.8125 Z "/>
</g>
<g id="glyph-0-2">
<path d="M 1.0625 -3 L 1.0625 -0.65625 L 1.25 -0.65625 C 1.53125 -0.65625 1.726562 -0.742188 1.84375 -0.921875 C 1.96875 -1.097656 2.03125 -1.398438 2.03125 -1.828125 C 2.03125 -2.253906 1.96875 -2.554688 1.84375 -2.734375 C 1.726562 -2.910156 1.53125 -3 1.25 -3 Z M 0.328125 -3.640625 L 1.109375 -3.640625 C 1.703125 -3.640625 2.128906 -3.5 2.390625 -3.21875 C 2.648438 -2.9375 2.78125 -2.472656 2.78125 -1.828125 C 2.78125 -1.179688 2.648438 -0.710938 2.390625 -0.421875 C 2.128906 -0.140625 1.703125 0 1.109375 0 L 0.328125 0 Z "/>
</g>
<g id="glyph-0-3">
<path d="M 2.6875 0 L 0.40625 0 L 0.40625 -3.640625 L 2.6875 -3.640625 L 2.6875 -3.015625 L 1.125 -3.015625 L 1.125 -2.21875 L 2.53125 -2.21875 L 2.53125 -1.59375 L 1.125 -1.59375 L 1.125 -0.640625 L 2.6875 -0.640625 Z "/>
</g>
<g id="glyph-0-4">
<path d="M 0.546875 0 L 0.546875 -3.640625 L 1.265625 -3.640625 L 1.265625 -0.640625 L 2.8125 -0.640625 L 2.8125 0 Z "/>
</g>
<g id="glyph-0-5">
</g>
<g id="glyph-0-6">
<path d="M 0 -3.640625 L 0.625 -3.640625 L 0.890625 -0.96875 L 1.203125 -2.703125 L 1.796875 -2.703125 L 2.171875 -0.96875 L 2.375 -3.640625 L 3.015625 -3.640625 L 2.59375 0 L 1.921875 0 L 1.5 -1.921875 L 1.109375 0 L 0.453125 0 Z "/>
</g>
<g id="glyph-0-7">
<path d="M 1.5 -2.984375 L 1.171875 -1.5 L 1.84375 -1.5 Z M 1.0625 -3.640625 L 1.953125 -3.640625 L 2.9375 0 L 2.203125 0 L 1.984375 -0.90625 L 1.015625 -0.90625 L 0.796875 0 L 0.078125 0 Z "/>
</g>
<g id="glyph-0-8">
<path d="M 0.28125 -3.640625 L 1 -3.640625 L 1 -2.203125 L 2.140625 -3.640625 L 2.953125 -3.640625 L 1.796875 -2.203125 L 2.984375 0 L 2.1875 0 L 1.328125 -1.640625 L 1 -1.234375 L 1 0 L 0.28125 0 Z "/>
</g>
<g id="glyph-0-9">
<path d="M 1.859375 0 L 1.140625 0 L 1.140625 -3.015625 L 0.21875 -3.015625 L 0.21875 -3.640625 L 2.796875 -3.640625 L 2.796875 -3.015625 L 1.859375 -3.015625 Z "/>
</g>
<g id="glyph-0-10">
<path d="M 0.328125 -3.640625 L 1.0625 -3.640625 L 1.0625 -2.25 L 1.953125 -2.25 L 1.953125 -3.640625 L 2.671875 -3.640625 L 2.671875 0 L 1.953125 0 L 1.953125 -1.625 L 1.0625 -1.625 L 1.0625 0 L 0.328125 0 Z "/>
</g>
<g id="glyph-0-11">
<path d="M 1.96875 -1.71875 C 2.039062 -1.707031 2.101562 -1.675781 2.15625 -1.625 C 2.207031 -1.570312 2.269531 -1.46875 2.34375 -1.3125 L 3.015625 0 L 2.21875 0 L 1.78125 -0.921875 C 1.769531 -0.941406 1.753906 -0.976562 1.734375 -1.03125 C 1.597656 -1.300781 1.445312 -1.4375 1.28125 -1.4375 L 1.046875 -1.4375 L 1.046875 0 L 0.328125 0 L 0.328125 -3.640625 L 1.359375 -3.640625 C 1.828125 -3.640625 2.164062 -3.554688 2.375 -3.390625 C 2.582031 -3.222656 2.6875 -2.953125 2.6875 -2.578125 C 2.6875 -2.328125 2.625 -2.128906 2.5 -1.984375 C 2.375 -1.835938 2.195312 -1.75 1.96875 -1.71875 Z M 1.046875 -3.046875 L 1.046875 -2.046875 L 1.390625 -2.046875 C 1.585938 -2.046875 1.726562 -2.082031 1.8125 -2.15625 C 1.894531 -2.238281 1.9375 -2.367188 1.9375 -2.546875 C 1.9375 -2.722656 1.894531 -2.847656 1.8125 -2.921875 C 1.726562 -3.003906 1.585938 -3.046875 1.390625 -3.046875 Z "/>
</g>
<g id="glyph-0-12">
<path d="M 0.265625 -1.34375 L 0.265625 -3.640625 L 0.984375 -3.640625 L 0.984375 -1.171875 C 0.984375 -0.984375 1.023438 -0.835938 1.109375 -0.734375 C 1.203125 -0.628906 1.332031 -0.578125 1.5 -0.578125 C 1.664062 -0.578125 1.796875 -0.628906 1.890625 -0.734375 C 1.984375 -0.835938 2.03125 -0.984375 2.03125 -1.171875 L 2.03125 -3.640625 L 2.75 -3.640625 L 2.75 -1.34375 C 2.75 -0.851562 2.648438 -0.492188 2.453125 -0.265625 C 2.253906 -0.0351562 1.9375 0.078125 1.5 0.078125 C 1.070312 0.078125 0.757812 -0.0351562 0.5625 -0.265625 C 0.363281 -0.492188 0.265625 -0.851562 0.265625 -1.34375 Z "/>
</g>
<g id="glyph-0-13">
<path d="M 2.125 -0.65625 L 2.125 -1.359375 L 1.640625 -1.359375 L 1.640625 -1.953125 L 2.765625 -1.953125 L 2.765625 -0.296875 C 2.617188 -0.171875 2.460938 -0.078125 2.296875 -0.015625 C 2.128906 0.046875 1.953125 0.078125 1.765625 0.078125 C 1.296875 0.078125 0.929688 -0.0820312 0.671875 -0.40625 C 0.410156 -0.738281 0.28125 -1.207031 0.28125 -1.8125 C 0.28125 -2.425781 0.410156 -2.894531 0.671875 -3.21875 C 0.929688 -3.550781 1.304688 -3.71875 1.796875 -3.71875 C 1.941406 -3.71875 2.082031 -3.695312 2.21875 -3.65625 C 2.363281 -3.613281 2.5 -3.550781 2.625 -3.46875 L 2.625 -2.671875 C 2.53125 -2.796875 2.414062 -2.890625 2.28125 -2.953125 C 2.144531 -3.023438 2 -3.0625 1.84375 -3.0625 C 1.570312 -3.0625 1.367188 -2.957031 1.234375 -2.75 C 1.097656 -2.550781 1.03125 -2.238281 1.03125 -1.8125 C 1.03125 -1.414062 1.09375 -1.109375 1.21875 -0.890625 C 1.351562 -0.679688 1.546875 -0.578125 1.796875 -0.578125 C 1.867188 -0.578125 1.929688 -0.582031 1.984375 -0.59375 C 2.046875 -0.613281 2.09375 -0.632812 2.125 -0.65625 Z "/>
</g>
</g>
</defs>
<g fill="rgb(85.098039%, 64.313725%, 25.490196%)" fill-opacity="1">
<use xlink:href="#glyph-0-0" x="30" y="24.641602"/>
<use xlink:href="#glyph-0-1" x="33" y="24.641602"/>
<use xlink:href="#glyph-0-2" x="36" y="24.641602"/>
<use xlink:href="#glyph-0-3" x="39" y="24.641602"/>
<use xlink:href="#glyph-0-4" x="42" y="24.641602"/>
<use xlink:href="#glyph-0-5" x="45" y="24.641602"/>
<use xlink:href="#glyph-0-6" x="48" y="24.641602"/>
<use xlink:href="#glyph-0-7" x="51" y="24.641602"/>
<use xlink:href="#glyph-0-4" x="54" y="24.641602"/>
<use xlink:href="#glyph-0-8" x="57" y="24.641602"/>
<use xlink:href="#glyph-0-9" x="60" y="24.641602"/>
<use xlink:href="#glyph-0-10" x="63" y="24.641602"/>
<use xlink:href="#glyph-0-11" x="66" y="24.641602"/>
<use xlink:href="#glyph-0-1" x="69" y="24.641602"/>
<use xlink:href="#glyph-0-12" x="72" y="24.641602"/>
<use xlink:href="#glyph-0-13" x="75" y="24.641602"/>
<use xlink:href="#glyph-0-10" x="78" y="24.641602"/>
</g>
</svg>
