<?xml version="1.0" encoding="UTF-8"?>
<svg xmlns="http://www.w3.org/2000/svg" xmlns:xlink="http://www.w3.org/1999/xlink" width="854" height="480" viewBox="0 0 854 480">
<defs>
<g>
<g id="glyph-0-0">
<path d="M 4.46875 0 L 0.6875 0 L 0.6875 -6.078125 L 4.46875 -6.078125 L 4.46875 -5.015625 L 1.875 -5.015625 L 1.875 -3.703125 L 4.21875 -3.703125 L 4.21875 -2.640625 L 1.875 -2.640625 L 1.875 -1.0625 L 4.46875 -1.0625 Z "/>
</g>
<g id="glyph-0-1">
<path d="M 1.796875 -0.640625 L 1.796875 1.734375 L 0.609375 1.734375 L 0.609375 -4.546875 L 1.796875 -4.546875 L 1.796875 -3.875 C 1.921875 -4.132812 2.082031 -4.332031 2.28125 -4.46875 C 2.488281 -4.601562 2.726562 -4.671875 3 -4.671875 C 3.519531 -4.671875 3.921875 -4.457031 4.203125 -4.03125 C 4.492188 -3.613281 4.640625 -3.023438 4.640625 -2.265625 C 4.640625 -1.503906 4.492188 -0.914062 4.203125 -0.5 C 3.921875 -0.0820312 3.507812 0.125 2.96875 0.125 C 2.71875 0.125 2.492188 0.0585938 2.296875 -0.0625 C 2.109375 -0.195312 1.941406 -0.390625 1.796875 -0.640625 Z M 3.453125 -2.28125 C 3.453125 -2.71875 3.378906 -3.0625 3.234375 -3.3125 C 3.085938 -3.5625 2.882812 -3.6875 2.625 -3.6875 C 2.375 -3.6875 2.171875 -3.5625 2.015625 -3.3125 C 1.867188 -3.0625 1.796875 -2.71875 1.796875 -2.28125 C 1.796875 -1.84375 1.867188 -1.5 2.015625 -1.25 C 2.171875 -1 2.375 -0.875 2.625 -0.875 C 2.882812 -0.875 3.085938 -1 3.234375 -1.25 C 3.378906 -1.5 3.453125 -1.84375 3.453125 -2.28125 Z "/>
</g>
<g id="glyph-0-2">
<path d="M 0.90625 -4.546875 L 3.25 -4.546875 L 3.25 -0.921875 L 4.734375 -0.921875 L 4.734375 0 L 0.578125 0 L 0.578125 -0.921875 L 2.0625 -0.921875 L 2.0625 -3.640625 L 0.90625 -3.640625 Z M 2.0625 -6.765625 L 3.25 -6.765625 L 3.25 -5.375 L 2.0625 -5.375 Z "/>
</g>
<g id="glyph-0-3">
<path d="M 4.03125 -4.40625 L 4.03125 -3.375 C 3.8125 -3.507812 3.582031 -3.613281 3.34375 -3.6875 C 3.101562 -3.757812 2.863281 -3.796875 2.625 -3.796875 C 2.363281 -3.796875 2.164062 -3.753906 2.03125 -3.671875 C 1.894531 -3.597656 1.828125 -3.488281 1.828125 -3.34375 C 1.828125 -3.125 2.117188 -2.945312 2.703125 -2.8125 L 2.734375 -2.796875 L 3.078125 -2.71875 C 3.515625 -2.613281 3.832031 -2.445312 4.03125 -2.21875 C 4.238281 -1.988281 4.34375 -1.679688 4.34375 -1.296875 C 4.34375 -0.816406 4.1875 -0.457031 3.875 -0.21875 C 3.570312 0.0078125 3.109375 0.125 2.484375 0.125 C 2.210938 0.125 1.929688 0.0976562 1.640625 0.046875 C 1.359375 -0.00390625 1.066406 -0.078125 0.765625 -0.171875 L 0.765625 -1.203125 C 1.035156 -1.054688 1.304688 -0.941406 1.578125 -0.859375 C 1.847656 -0.785156 2.109375 -0.75 2.359375 -0.75 C 2.640625 -0.75 2.851562 -0.789062 3 -0.875 C 3.144531 -0.957031 3.21875 -1.070312 3.21875 -1.21875 C 3.21875 -1.375 3.164062 -1.492188 3.0625 -1.578125 C 2.957031 -1.660156 2.71875 -1.742188 2.34375 -1.828125 L 2.015625 -1.90625 C 1.554688 -2.007812 1.222656 -2.171875 1.015625 -2.390625 C 0.804688 -2.609375 0.703125 -2.90625 0.703125 -3.28125 C 0.703125 -3.71875 0.859375 -4.054688 1.171875 -4.296875 C 1.492188 -4.546875 1.941406 -4.671875 2.515625 -4.671875 C 2.773438 -4.671875 3.03125 -4.644531 3.28125 -4.59375 C 3.539062 -4.550781 3.789062 -4.488281 4.03125 -4.40625 Z "/>
</g>
<g id="glyph-0-4">
<path d="M 2.5 -3.703125 C 2.21875 -3.703125 1.992188 -3.570312 1.828125 -3.3125 C 1.671875 -3.0625 1.59375 -2.710938 1.59375 -2.265625 C 1.59375 -1.828125 1.671875 -1.476562 1.828125 -1.21875 C 1.992188 -0.96875 2.21875 -0.84375 2.5 -0.84375 C 2.789062 -0.84375 3.015625 -0.96875 3.171875 -1.21875 C 3.335938 -1.476562 3.421875 -1.828125 3.421875 -2.265625 C 3.421875 -2.710938 3.335938 -3.0625 3.171875 -3.3125 C 3.015625 -3.570312 2.789062 -3.703125 2.5 -3.703125 Z M 0.40625 -2.265625 C 0.40625 -3.003906 0.59375 -3.585938 0.96875 -4.015625 C 1.351562 -4.453125 1.863281 -4.671875 2.5 -4.671875 C 3.144531 -4.671875 3.65625 -4.453125 4.03125 -4.015625 C 4.414062 -3.585938 4.609375 -3.003906 4.609375 -2.265625 C 4.609375 -1.535156 4.414062 -0.953125 4.03125 -0.515625 C 3.65625 -0.0859375 3.144531 0.125 2.5 0.125 C 1.863281 0.125 1.351562 -0.0859375 0.96875 -0.515625 C 0.59375 -0.953125 0.40625 -1.535156 0.40625 -2.265625 Z "/>
</g>
<g id="glyph-0-5">
<path d="M 3.21875 -3.90625 L 3.21875 -6.328125 L 4.40625 -6.328125 L 4.40625 0 L 3.21875 0 L 3.21875 -0.671875 C 3.09375 -0.410156 2.925781 -0.210938 2.71875 -0.078125 C 2.519531 0.0546875 2.285156 0.125 2.015625 0.125 C 1.492188 0.125 1.085938 -0.0820312 0.796875 -0.5 C 0.503906 -0.925781 0.359375 -1.515625 0.359375 -2.265625 C 0.359375 -3.035156 0.503906 -3.628906 0.796875 -4.046875 C 1.085938 -4.460938 1.503906 -4.671875 2.046875 -4.671875 C 2.296875 -4.671875 2.515625 -4.601562 2.703125 -4.46875 C 2.898438 -4.34375 3.070312 -4.15625 3.21875 -3.90625 Z M 1.5625 -2.265625 C 1.5625 -1.828125 1.632812 -1.484375 1.78125 -1.234375 C 1.925781 -0.984375 2.128906 -0.859375 2.390625 -0.859375 C 2.640625 -0.859375 2.835938 -0.984375 2.984375 -1.234375 C 3.140625 -1.484375 3.21875 -1.828125 3.21875 -2.265625 C 3.21875 -2.703125 3.140625 -3.046875 2.984375 -3.296875 C 2.835938 -3.546875 2.640625 -3.671875 2.390625 -3.671875 C 2.128906 -3.671875 1.925781 -3.546875 1.78125 -3.296875 C 1.632812 -3.046875 1.5625 -2.703125 1.5625 -2.265625 Z "/>
</g>
<g id="glyph-0-6">
<path d="M 4.484375 -0.21875 C 4.203125 -0.101562 3.914062 -0.0195312 3.625 0.03125 C 3.34375 0.09375 3.039062 0.125 2.71875 0.125 C 1.957031 0.125 1.375 -0.078125 0.96875 -0.484375 C 0.570312 -0.898438 0.375 -1.488281 0.375 -2.25 C 0.375 -3 0.566406 -3.585938 0.953125 -4.015625 C 1.335938 -4.453125 1.867188 -4.671875 2.546875 -4.671875 C 3.210938 -4.671875 3.734375 -4.46875 4.109375 -4.0625 C 4.484375 -3.664062 4.671875 -3.101562 4.671875 -2.375 L 4.671875 -1.890625 L 1.578125 -1.890625 C 1.585938 -1.535156 1.695312 -1.269531 1.90625 -1.09375 C 2.113281 -0.914062 2.425781 -0.828125 2.84375 -0.828125 C 3.113281 -0.828125 3.378906 -0.863281 3.640625 -0.9375 C 3.910156 -1.019531 4.191406 -1.144531 4.484375 -1.3125 Z M 3.46875 -2.78125 C 3.46875 -3.09375 3.390625 -3.328125 3.234375 -3.484375 C 3.078125 -3.648438 2.847656 -3.734375 2.546875 -3.734375 C 2.265625 -3.734375 2.039062 -3.648438 1.875 -3.484375 C 1.71875 -3.316406 1.625 -3.082031 1.59375 -2.78125 Z "/>
</g>
<g id="glyph-0-7">
</g>
<g id="glyph-0-8">
<path d="M 0.765625 -1.0625 L 2.109375 -1.0625 L 2.109375 -5 L 0.859375 -4.6875 L 0.859375 -5.765625 L 2.109375 -6.078125 L 3.28125 -6.078125 L 3.28125 -1.0625 L 4.609375 -1.0625 L 4.609375 0 L 0.765625 0 Z "/>
</g>
<g id="glyph-0-9">
<path d="M 3.453125 -2.265625 C 3.453125 -2.703125 3.378906 -3.046875 3.234375 -3.296875 C 3.085938 -3.546875 2.882812 -3.671875 2.625 -3.671875 C 2.375 -3.671875 2.171875 -3.546875 2.015625 -3.296875 C 1.867188 -3.046875 1.796875 -2.703125 1.796875 -2.265625 C 1.796875 -1.828125 1.867188 -1.484375 2.015625 -1.234375 C 2.171875 -0.984375 2.375 -0.859375 2.625 -0.859375 C 2.882812 -0.859375 3.085938 -0.984375 3.234375 -1.234375 C 3.378906 -1.484375 3.453125 -1.828125 3.453125 -2.265625 Z M 1.796875 -3.90625 C 1.941406 -4.15625 2.109375 -4.34375 2.296875 -4.46875 C 2.492188 -4.601562 2.71875 -4.671875 2.96875 -4.671875 C 3.507812 -4.671875 3.921875 -4.460938 4.203125 -4.046875 C 4.492188 -3.628906 4.640625 -3.035156 4.640625 -2.265625 C 4.640625 -1.515625 4.492188 -0.925781 4.203125 -0.5 C 3.921875 -0.0820312 3.519531 0.125 3 0.125 C 2.726562 0.125 2.488281 0.0546875 2.28125 -0.078125 C 2.082031 -0.210938 1.921875 -0.410156 1.796875 -0.671875 L 1.796875 0 L 0.609375 0 L 0.609375 -6.328125 L 1.796875 -6.328125 Z "/>
</g>
<g id="glyph-0-10">
<path d="M 3.265625 -2.34375 C 3.265625 -2.75 3.1875 -3.078125 3.03125 -3.328125 C 2.875 -3.578125 2.671875 -3.703125 2.421875 -3.703125 C 2.171875 -3.703125 1.96875 -3.578125 1.8125 -3.328125 C 1.664062 -3.085938 1.59375 -2.757812 1.59375 -2.34375 C 1.59375 -1.9375 1.664062 -1.609375 1.8125 -1.359375 C 1.96875 -1.117188 2.171875 -1 2.421875 -1 C 2.671875 -1 2.875 -1.117188 3.03125 -1.359375 C 3.1875 -1.609375 3.265625 -1.9375 3.265625 -2.34375 Z M 4.453125 -0.34375 C 4.453125 0.382812 4.285156 0.910156 3.953125 1.234375 C 3.628906 1.554688 3.097656 1.71875 2.359375 1.71875 C 2.109375 1.71875 1.859375 1.695312 1.609375 1.65625 C 1.367188 1.625 1.125 1.570312 0.875 1.5 L 0.875 0.40625 C 1.101562 0.53125 1.332031 0.617188 1.5625 0.671875 C 1.789062 0.734375 2.03125 0.765625 2.28125 0.765625 C 2.613281 0.765625 2.859375 0.6875 3.015625 0.53125 C 3.179688 0.375 3.265625 0.128906 3.265625 -0.203125 L 3.265625 -0.703125 C 3.148438 -0.484375 2.992188 -0.320312 2.796875 -0.21875 C 2.609375 -0.113281 2.375 -0.0625 2.09375 -0.0625 C 1.570312 -0.0625 1.160156 -0.265625 0.859375 -0.671875 C 0.554688 -1.078125 0.40625 -1.628906 0.40625 -2.328125 C 0.40625 -3.046875 0.554688 -3.613281 0.859375 -4.03125 C 1.160156 -4.457031 1.570312 -4.671875 2.09375 -4.671875 C 2.351562 -4.671875 2.582031 -4.609375 2.78125 -4.484375 C 2.988281 -4.367188 3.148438 -4.195312 3.265625 -3.96875 L 3.265625 -4.546875 L 4.453125 -4.546875 Z "/>
</g>
<g id="glyph-0-11">
<path d="M 4.359375 -2.953125 L 4.359375 0 L 3.171875 0 L 3.171875 -2.765625 C 3.171875 -3.097656 3.125 -3.335938 3.03125 -3.484375 C 2.9375 -3.628906 2.785156 -3.703125 2.578125 -3.703125 C 2.359375 -3.703125 2.1875 -3.601562 2.0625 -3.40625 C 1.9375 -3.21875 1.875 -2.953125 1.875 -2.609375 L 1.875 0 L 0.703125 0 L 0.703125 -4.546875 L 1.875 -4.546875 L 1.875 -3.875 C 1.96875 -4.125 2.113281 -4.316406 2.3125 -4.453125 C 2.519531 -4.597656 2.765625 -4.671875 3.046875 -4.671875 C 3.484375 -4.671875 3.8125 -4.523438 4.03125 -4.234375 C 4.25 -3.953125 4.359375 -3.523438 4.359375 -2.953125 Z "/>
</g>
<g id="glyph-0-12">
<path d="M 0 -4.546875 L 1 -4.546875 L 1.53125 -1.0625 L 2.03125 -3.359375 L 2.984375 -3.359375 L 3.46875 -1.0625 L 4.015625 -4.546875 L 5.015625 -4.546875 L 4.1875 0 L 3.0625 0 L 2.5 -2.359375 L 1.953125 0 L 0.828125 0 Z "/>
</g>
<g id="glyph-0-13">
<path d="M 2.8125 -5.84375 L 2.8125 -4.546875 L 4.359375 -4.546875 L 4.359375 -3.640625 L 2.8125 -3.640625 L 2.8125 -1.484375 C 2.8125 -1.273438 2.859375 -1.128906 2.953125 -1.046875 C 3.054688 -0.960938 3.222656 -0.921875 3.453125 -0.921875 L 4.359375 -0.921875 L 4.359375 0 L 3.359375 0 C 2.679688 0 2.21875 -0.109375 1.96875 -0.328125 C 1.726562 -0.546875 1.609375 -0.953125 1.609375 -1.546875 L 1.609375 -3.640625 L 0.453125 -3.640625 L 0.453125 -4.546875 L 1.609375 -4.546875 L 1.609375 -5.84375 Z "/>
</g>
<g id="glyph-0-14">
<path d="M 4.359375 -2.953125 L 4.359375 0 L 3.171875 0 L 3.171875 -2.765625 C 3.171875 -3.097656 3.125 -3.332031 3.03125 -3.46875 C 2.9375 -3.613281 2.785156 -3.6875 2.578125 -3.6875 C 2.359375 -3.6875 2.1875 -3.585938 2.0625 -3.390625 C 1.9375 -3.203125 1.875 -2.941406 1.875 -2.609375 L 1.875 0 L 0.703125 0 L 0.703125 -6.328125 L 1.875 -6.328125 L 1.875 -3.875 C 1.96875 -4.125 2.113281 -4.316406 2.3125 -4.453125 C 2.519531 -4.597656 2.765625 -4.671875 3.046875 -4.671875 C 3.484375 -4.671875 3.8125 -4.523438 4.03125 -4.234375 C 4.25 -3.953125 4.359375 -3.523438 4.359375 -2.953125 Z "/>
</g>
<g id="glyph-0-15">
<path d="M 4.6875 -3.296875 C 4.550781 -3.421875 4.394531 -3.507812 4.21875 -3.5625 C 4.039062 -3.625 3.847656 -3.65625 3.640625 -3.65625 C 3.390625 -3.65625 3.171875 -3.609375 2.984375 -3.515625 C 2.796875 -3.429688 2.648438 -3.304688 2.546875 -3.140625 C 2.484375 -3.035156 2.4375 -2.910156 2.40625 -2.765625 C 2.382812 -2.617188 2.375 -2.394531 2.375 -2.09375 L 2.375 0 L 1.1875 0 L 1.1875 -4.546875 L 2.375 -4.546875 L 2.375 -3.84375 C 2.488281 -4.101562 2.664062 -4.304688 2.90625 -4.453125 C 3.15625 -4.597656 3.4375 -4.671875 3.75 -4.671875 C 3.914062 -4.671875 4.078125 -4.648438 4.234375 -4.609375 C 4.390625 -4.566406 4.539062 -4.507812 4.6875 -4.4375 Z "/>
</g>
<g id="glyph-0-16">
<path d="M 2.84375 -2.140625 C 2.394531 -2.140625 2.082031 -2.082031 1.90625 -1.96875 C 1.738281 -1.851562 1.65625 -1.65625 1.65625 -1.375 C 1.65625 -1.175781 1.710938 -1.015625 1.828125 -0.890625 C 1.953125 -0.765625 2.117188 -0.703125 2.328125 -0.703125 C 2.640625 -0.703125 2.882812 -0.820312 3.0625 -1.0625 C 3.238281 -1.300781 3.328125 -1.632812 3.328125 -2.0625 L 3.328125 -2.140625 Z M 4.5 -2.59375 L 4.5 0 L 3.328125 0 L 3.328125 -0.515625 C 3.179688 -0.304688 2.992188 -0.144531 2.765625 -0.03125 C 2.546875 0.0703125 2.300781 0.125 2.03125 0.125 C 1.507812 0.125 1.101562 -0.0078125 0.8125 -0.28125 C 0.519531 -0.5625 0.375 -0.945312 0.375 -1.4375 C 0.375 -1.96875 0.546875 -2.359375 0.890625 -2.609375 C 1.242188 -2.867188 1.78125 -3 2.5 -3 L 3.328125 -3 L 3.328125 -3.203125 C 3.328125 -3.390625 3.253906 -3.53125 3.109375 -3.625 C 2.972656 -3.726562 2.769531 -3.78125 2.5 -3.78125 C 2.207031 -3.78125 1.925781 -3.742188 1.65625 -3.671875 C 1.394531 -3.597656 1.117188 -3.484375 0.828125 -3.328125 L 0.828125 -4.34375 C 1.097656 -4.457031 1.367188 -4.539062 1.640625 -4.59375 C 1.910156 -4.644531 2.195312 -4.671875 2.5 -4.671875 C 3.238281 -4.671875 3.753906 -4.519531 4.046875 -4.21875 C 4.347656 -3.914062 4.5 -3.375 4.5 -2.59375 Z "/>
</g>
<g id="glyph-0-17">
<path d="M 1.578125 -1.90625 L 1.578125 -5.40625 L 0.359375 -5.40625 L 0.359375 -6.328125 L 2.765625 -6.328125 L 2.765625 -1.90625 C 2.765625 -1.539062 2.816406 -1.285156 2.921875 -1.140625 C 3.035156 -0.992188 3.226562 -0.921875 3.5 -0.921875 L 4.453125 -0.921875 L 4.453125 0 L 3.15625 0 C 2.59375 0 2.1875 -0.144531 1.9375 -0.4375 C 1.695312 -0.726562 1.578125 -1.21875 1.578125 -1.90625 Z "/>
</g>
<g id="glyph-0-18">
<path d="M 1.828125 -1.5 L 3.1875 -1.5 L 3.1875 0 L 1.828125 0 Z "/>
</g>
</g>
</defs>
<g fill="rgb(12.156863%, 16.078431%, 20%)" fill-opacity="1">
<use xlink:href="#glyph-0-0" x="30" y="27.735352"/>
<use xlink:href="#glyph-0-1" x="35" y="27.735352"/>
<use xlink:href="#glyph-0-2" x="40" y="27.735352"/>
<use xlink:href="#glyph-0-3" x="45" y="27.735352"/>
<use xlink:href="#glyph-0-4" x="50" y="27.735352"/>
<use xlink:href="#glyph-0-5" x="55" y="27.735352"/>
<use xlink:href="#glyph-0-6" x="60" y="27.735352"/>
<use xlink:href="#glyph-0-7" x="65" y="27.735352"/>
<use xlink:href="#glyph-0-8" x="70" y="27.735352"/>
<use xlink:href="#glyph-0-7" x="75" y="27.735352"/>
<use xlink:href="#glyph-0-9" x="80" y="27.735352"/>
<use xlink:href="#glyph-0-6" x="85" y="27.735352"/>
<use xlink:href="#glyph-0-10" x="90" y="27.735352"/>
<use xlink:href="#glyph-0-2" x="95" y="27.735352"/>
<use xlink:href="#glyph-0-11" x="100" y="27.735352"/>
<use xlink:href="#glyph-0-3" x="105" y="27.735352"/>
<use xlink:href="#glyph-0-7" x="110" y="27.735352"/>
<use xlink:href="#glyph-0-12" x="115" y="27.735352"/>
<use xlink:href="#glyph-0-2" x="120" y="27.735352"/>
<use xlink:href="#glyph-0-13" x="125" y="27.735352"/>
<use xlink:href="#glyph-0-14" x="130" y="27.735352"/>
<use xlink:href="#glyph-0-7" x="135" y="27.735352"/>
<use xlink:href="#glyph-0-13" x="140" y="27.735352"/>
<use xlink:href="#glyph-0-15" x="145" y="27.735352"/>
<use xlink:href="#glyph-0-16" x="150" y="27.735352"/>
<use xlink:href="#glyph-0-11" x="155" y="27.735352"/>
<use xlink:href="#glyph-0-3" x="160" y="27.735352"/>
<use xlink:href="#glyph-0-2" x="165" y="27.735352"/>
<use xlink:href="#glyph-0-6" x="170" y="27.735352"/>
<use xlink:href="#glyph-0-11" x="175" y="27.735352"/>
<use xlink:href="#glyph-0-13" x="180" y="27.735352"/>
<use xlink:href="#glyph-0-7" x="185" y="27.735352"/>
<use xlink:href="#glyph-0-5" x="190" y="27.735352"/>
<use xlink:href="#glyph-0-2" x="195" y="27.735352"/>
<use xlink:href="#glyph-0-1" x="200" y="27.735352"/>
<use xlink:href="#glyph-0-4" x="205" y="27.735352"/>
<use xlink:href="#glyph-0-17" x="210" y="27.735352"/>
<use xlink:href="#glyph-0-6" x="215" y="27.735352"/>
<use xlink:href="#glyph-0-3" x="220" y="27.735352"/>
<use xlink:href="#glyph-0-18" x="225" y="27.735352"/>
</g>
</svg>
